# xmcd CD database file
#
# Track frame offsets:
#	150
#	14287
#	28232
#	43980
#	55332
#	69245
#	81817
#	95087
#	109800
#	122790
#	137512
#	150425
#	166837
#	184677
#	196455
#	213417
#	227180
#	244020
#
# Disc length: 3496 seconds
#
# Revision: 0
# Processed by: cddbd v1.4PL0 Copyright (c) Steve Scherf et al.
# Submitted via: CDex 1.50beta9
#
DISCID=f60da612
DTITLE=Foster and Allen - Reminiscing
DYEAR=1991
DGENRE=Country
TTITLE0=Nobody's Darlin' But Mine
TTITLE1=Somewhere My Love
TTITLE2=Old Shep
TTITLE3=Sweetest Of All
TTITLE4=Fraulein
TTITLE5=The Moonshiner
TTITLE6=Sunshine Of Your Smile
TTITLE7=Sitting Alone In An Old Rocking Chair
TTITLE8=The Wild Side Of Life
TTITLE9=Old Loves Never Die
TTITLE10=Sweet Bye And Bye
TTITLE11=Old Pals
TTITLE12=If We Had Old Ireland Here
TTITLE13=I Wish I Was Eighteen Again
TTITLE14=She Sang The Melody
TTITLE15=A Pub With No Beer
TTITLE16=Long Before Your Time
TTITLE17=The Mira
EXTD=YEAR: 1991
EXTT0=
EXTT1=
EXTT2=
EXTT3=
EXTT4=
EXTT5=
EXTT6=
EXTT7=
EXTT8=
EXTT9=
EXTT10=
EXTT11=
EXTT12=
EXTT13=
EXTT14=
EXTT15=
EXTT16=
EXTT17=
PLAYORDER=
